<svg width="78" height="16" viewBox="0 0 78 16" fill="none" xmlns="http://www.w3.org/2000/svg">
<path d="M6.28 8.048L6.038 9.038H8.678L8.436 8.048C8.26 7.35867 8.084 6.61067 7.908 5.804C7.732 4.99733 7.556 4.23467 7.38 3.516H7.292C7.14533 4.23467 6.984 4.99733 6.808 5.804C6.632 6.61067 6.456 7.35867 6.28 8.048ZM0.78 15L5.136 0.699999H9.712L14.068 15H10.064L9.36 11.964H5.356L4.652 15H0.78ZM15.4317 15V0.699999H19.3037L22.4717 7.08L23.8357 10.292H23.9237C23.8357 9.51467 23.733 8.63467 23.6157 7.652C23.4983 6.65467 23.4397 5.716 23.4397 4.836V0.699999H27.0477V15H23.1757L20.0077 8.598L18.6437 5.408H18.5557C18.6437 6.21467 18.7463 7.10933 18.8637 8.092C18.981 9.06 19.0397 9.984 19.0397 10.864V15H15.4317ZM33.9089 8.048L33.6669 9.038H36.3069L36.0649 8.048C35.8889 7.35867 35.7129 6.61067 35.5369 5.804C35.3609 4.99733 35.1849 4.23467 35.0089 3.516H34.9209C34.7742 4.23467 34.6129 4.99733 34.4369 5.804C34.2609 6.61067 34.0849 7.35867 33.9089 8.048ZM28.4089 15L32.7649 0.699999H37.3409L41.6969 15H37.6929L36.9889 11.964H32.9849L32.2809 15H28.4089ZM43.0606 15V0.699999H52.3886V3.868H46.8446V6.596H51.5966V9.764H46.8446V15H43.0606ZM54.8555 15V0.699999H64.0955V3.868H58.6395V6.112H63.3035V9.28H58.6395V11.832H64.3155V15H54.8555ZM71.6121 15.264C70.7174 15.264 69.7861 15.0953 68.8181 14.758C67.8501 14.4207 66.9774 13.9073 66.2001 13.218L68.3561 10.622C68.8694 11.0327 69.4194 11.37 70.0061 11.634C70.6074 11.8833 71.1721 12.008 71.7001 12.008C72.2721 12.008 72.6828 11.92 72.9321 11.744C73.1961 11.568 73.3281 11.3187 73.3281 10.996C73.3281 10.6587 73.1521 10.402 72.8001 10.226C72.4628 10.05 71.9934 9.84467 71.3921 9.61L69.6101 8.862C68.8474 8.554 68.1728 8.07 67.5861 7.41C67.0141 6.75 66.7281 5.90667 66.7281 4.88C66.7281 4.05867 66.9554 3.318 67.4101 2.658C67.8648 1.98333 68.4881 1.448 69.2801 1.052C70.0868 0.641332 71.0108 0.435999 72.0521 0.435999C72.8734 0.435999 73.7021 0.597332 74.5381 0.919999C75.3888 1.228 76.1441 1.70467 76.8041 2.35L74.9121 4.726C74.4281 4.38867 73.9588 4.132 73.5041 3.956C73.0641 3.78 72.5801 3.692 72.0521 3.692C71.5974 3.692 71.2308 3.77267 70.9521 3.934C70.6881 4.09533 70.5561 4.33733 70.5561 4.66C70.5561 4.99733 70.7468 5.26133 71.1281 5.452C71.5094 5.628 72.0228 5.84067 72.6681 6.09L74.4061 6.772C75.3008 7.124 75.9901 7.61533 76.4741 8.246C76.9581 8.87667 77.2001 9.69067 77.2001 10.688C77.2001 11.4947 76.9801 12.25 76.5401 12.954C76.1148 13.6433 75.4841 14.2007 74.6481 14.626C73.8121 15.0513 72.8001 15.264 71.6121 15.264Z" fill="#064256"/>
</svg>
