<svg width="170" height="40" viewBox="0 0 170 40" fill="none" xmlns="http://www.w3.org/2000/svg" class="active">
  <g clip-path="url(#clip0)">
      <path d="M30.5135 39.8521V0.410156H1.46606L24.8313 39.8521H30.5135Z" fill="#D6DB51" class="svg-elem-1"></path>
      <path d="M0 39.8522H18.6035L0 8.43994V39.8522Z" fill="#D6DB51" class="svg-elem-2"></path>
      <path d="M46.0712 0.410156H35.9456V39.8521H46.0712V0.410156Z" fill="#D6DB51" class="svg-elem-3"></path>
      <path d="M70.9592 25.2509H66.8339L55.8105 7.07318L55.7082 7.10734V25.2395H51.5602V0.364746H55.7082L66.7203 18.5196L66.8226 18.4855V0.364746H70.9478V25.2509H70.9592Z" fill="black" class="svg-elem-4"></path>
      <path d="M93.8472 14.055H82.9828V21.9137H95.5859V25.2509H78.8462V0.364746H95.4723V3.70188H82.9942V10.7292H93.8586V14.055H93.8472Z" fill="black" class="svg-elem-5"></path>
      <path d="M109.905 9.55609L115.144 0.364746H120.053L112.416 12.6996L120.349 25.2509H115.371L109.984 15.9001L104.598 25.2509H99.6884L107.496 12.6996L99.8475 0.364746H104.723L109.905 9.55609Z" fill="black" class="svg-elem-6"></path>
      <path d="M145.01 0.364746V17.0504C145.01 19.8067 144.112 21.9251 142.316 23.4057C140.521 24.8864 138.168 25.6153 135.27 25.6153C132.429 25.6153 130.122 24.875 128.361 23.3944C126.599 21.9137 125.713 19.7953 125.713 17.0504V0.364746H129.861V17.039C129.861 18.7816 130.35 20.0914 131.327 20.9684C132.304 21.8454 133.623 22.2782 135.27 22.2782C136.975 22.2782 138.339 21.8454 139.35 20.9684C140.362 20.0914 140.873 18.7816 140.873 17.039V0.364746H145.01Z" fill="black" class="svg-elem-7"></path>
      <path d="M165.863 18.8383C165.863 17.8018 165.477 16.959 164.716 16.2984C163.943 15.6378 162.59 15.0456 160.647 14.533C157.874 13.8041 155.738 12.836 154.249 11.6401C152.749 10.4328 152.01 8.86105 152.01 6.91344C152.01 4.90888 152.84 3.2574 154.488 1.959C156.124 0.649203 158.261 0 160.874 0C163.602 0 165.795 0.740319 167.454 2.20957C169.114 3.6902 169.909 5.45558 169.852 7.51708L169.818 7.61959H165.841C165.841 6.34396 165.409 5.30752 164.545 4.52164C163.681 3.72437 162.443 3.33713 160.84 3.33713C159.329 3.33713 158.17 3.66743 157.351 4.32802C156.533 4.98861 156.135 5.84282 156.135 6.89066C156.135 7.83599 156.579 8.62187 157.454 9.24829C158.34 9.87471 159.795 10.467 161.829 11.0251C164.5 11.7426 166.534 12.7335 167.92 13.9977C169.307 15.262 170 16.8793 170 18.8383C170 20.9112 169.17 22.5626 167.523 23.7813C165.863 25.0114 163.693 25.615 160.999 25.615C158.408 25.615 156.135 24.9203 154.181 23.5421C152.226 22.1526 151.272 20.2733 151.328 17.8815L151.362 17.779H155.351C155.351 19.2938 155.874 20.4214 156.92 21.1731C157.965 21.9248 159.329 22.2893 160.999 22.2893C162.534 22.2893 163.727 21.9818 164.579 21.3667C165.432 20.7289 165.863 19.8861 165.863 18.8383Z" fill="black" class="svg-elem-8"></path>
      <path d="M57.8903 35.5126H53.4468V39.852H51.7535V29.6812H58.6063V31.0479H53.4468V34.1572H57.8903V35.5126Z" fill="black" class="svg-elem-9"></path>
      <path d="M63.4249 35.6377V39.8632H61.7316V29.6924H65.4818C66.6182 29.6924 67.4933 29.9543 68.107 30.4555C68.7207 30.968 69.0389 31.6969 69.0389 32.6537C69.0389 33.1776 68.9025 33.6332 68.6297 34.009C68.357 34.3849 67.9592 34.6924 67.4365 34.9202C68.0047 35.1024 68.4138 35.3985 68.6752 35.8086C68.9252 36.2186 69.0502 36.7311 69.0502 37.3234V38.1662C69.0502 38.4623 69.0843 38.7584 69.1639 39.0432C69.2434 39.3279 69.3684 39.5443 69.5389 39.6924V39.8518H67.8001C67.6183 39.6924 67.4933 39.4532 67.4365 39.1229C67.3797 38.7926 67.3569 38.4737 67.3569 38.1548V37.3347C67.3569 36.8108 67.2092 36.4008 66.9137 36.0933C66.6182 35.7858 66.2091 35.6263 65.6864 35.6263H63.4249V35.6377ZM63.4249 34.271H65.3909C66.0728 34.271 66.5614 34.1457 66.8796 33.8837C67.1865 33.6218 67.3456 33.2231 67.3456 32.6878C67.3456 32.1753 67.1865 31.7767 66.891 31.4805C66.5842 31.1844 66.1182 31.0477 65.4932 31.0477H63.4362V34.271H63.4249Z" fill="black" class="svg-elem-10"></path>
      <path d="M80.7897 35.6835C80.7897 36.925 80.4033 37.9614 79.6191 38.7701C78.8464 39.5902 77.8349 40.0002 76.5849 40.0002C75.3689 40.0002 74.3802 39.5902 73.6187 38.7701C72.8573 37.9501 72.4823 36.925 72.4823 35.6835V33.8498C72.4823 32.6084 72.8573 31.5833 73.6187 30.7633C74.3802 29.9432 75.3689 29.5332 76.5735 29.5332C77.8122 29.5332 78.8236 29.9432 79.6078 30.7633C80.3919 31.5833 80.7783 32.6084 80.7783 33.8498V35.6835H80.7897ZM79.1077 33.8384C79.1077 32.9956 78.8805 32.2895 78.4259 31.7542C77.9713 31.2075 77.3576 30.9341 76.5849 30.9341C75.8462 30.9341 75.2552 31.2075 74.8234 31.7542C74.3915 32.3009 74.1756 32.9956 74.1756 33.8384V35.6835C74.1756 36.5378 74.3915 37.2439 74.8234 37.7906C75.2552 38.3373 75.8462 38.6107 76.5962 38.6107C77.369 38.6107 77.9827 38.3373 78.4372 37.7906C78.8805 37.2439 79.1077 36.5378 79.1077 35.6835V33.8384Z" fill="black" class="svg-elem-11"></path>
      <path d="M92.2563 39.852H90.5744L86.0741 32.426L86.0286 32.4374V39.852H84.324V29.6812H86.0173L90.5176 37.0957L90.563 37.0843V29.6812H92.245V39.852H92.2563Z" fill="black" class="svg-elem-12"></path>
      <path d="M103.109 31.0479H100.041V39.852H98.3476V31.0479H95.2792V29.6812H103.109V31.0479Z" fill="black" class="svg-elem-13"></path>
      <path d="M107.564 39.852H105.871V29.6812H107.564V39.852Z" fill="black" class="svg-elem-14"></path>
      <path d="M117.712 35.2734H113.269V38.4853H118.417V39.852H111.576V29.6812H118.372V31.0479H113.269V33.9181H117.712V35.2734Z" fill="black" class="svg-elem-15"></path>
      <path d="M123.611 35.6377V39.8632H121.917V29.6924H125.667C126.804 29.6924 127.679 29.9543 128.293 30.4555C128.906 30.968 129.225 31.6969 129.225 32.6537C129.225 33.1776 129.088 33.6332 128.815 34.009C128.543 34.3849 128.145 34.6924 127.622 34.9202C128.19 35.1024 128.6 35.3985 128.861 35.8086C129.111 36.2186 129.236 36.7311 129.236 37.3234V38.1662C129.236 38.4623 129.27 38.7584 129.35 39.0432C129.429 39.3279 129.554 39.5443 129.725 39.6924V39.8518H127.986C127.804 39.6924 127.679 39.4532 127.622 39.1229C127.565 38.7926 127.543 38.4737 127.543 38.1548V37.3347C127.543 36.8108 127.395 36.4008 127.099 36.0933C126.804 35.7858 126.395 35.6263 125.872 35.6263H123.611V35.6377ZM123.611 34.271H125.577C126.258 34.271 126.747 34.1457 127.065 33.8837C127.372 33.6218 127.531 33.2231 127.531 32.6878C127.531 32.1753 127.372 31.7767 127.077 31.4805C126.77 31.1844 126.304 31.0477 125.679 31.0477H123.622V34.271H123.611Z" fill="black" class="svg-elem-16"></path>
      <path d="M139.021 31.0479H135.952V39.852H134.259V31.0479H131.191V29.6812H139.021V31.0479Z" fill="black" class="svg-elem-17"></path>
      <path d="M147.828 35.2734H143.385V38.4853H148.533V39.852H141.691V29.6812H148.487V31.0479H143.385V33.9181H147.828V35.2734Z" fill="black" class="svg-elem-18"></path>
      <path d="M159.067 36.4807L159.079 36.5262C159.102 37.5513 158.761 38.3941 158.079 39.0433C157.397 39.6925 156.465 40.0114 155.294 40.0114C154.113 40.0114 153.147 39.6128 152.408 38.8155C151.669 38.0182 151.294 36.9932 151.294 35.7517V33.8155C151.294 32.574 151.658 31.5604 152.397 30.7517C153.124 29.9431 154.078 29.5444 155.249 29.5444C156.442 29.5444 157.397 29.8633 158.079 30.4898C158.772 31.1162 159.102 31.9704 159.09 33.041L159.079 33.0866H157.442C157.442 32.4032 157.26 31.8679 156.885 31.492C156.51 31.1048 155.976 30.9226 155.249 30.9226C154.556 30.9226 154.01 31.1959 153.601 31.7426C153.192 32.2893 152.987 32.9841 152.987 33.8041V35.7517C152.987 36.5945 153.192 37.2779 153.613 37.836C154.033 38.3941 154.59 38.6561 155.294 38.6561C155.999 38.6561 156.533 38.4624 156.885 38.0866C157.249 37.7107 157.431 37.1754 157.431 36.492H159.067V36.4807Z" fill="black" class="svg-elem-19"></path>
      <path d="M170 39.852H168.318V35.5126H163.772V39.852H162.079V29.6812H163.772V34.1572H168.318V29.6812H170V39.852Z" fill="black" class="svg-elem-20"></path>
  </g>
  <defs>
      <clipPath id="clip0">
          <rect width="170" height="40" fill="white" class="svg-elem-21"></rect>
      </clipPath>
  </defs>
</svg>